<mxfile host="app.diagrams.net" agent="Mozilla/5.0 (X11; Linux x86_64) AppleWebKit/537.36 (KHTML, like Gecko) Chrome/132.0.0.0 Safari/537.36" version="26.1.1">
  <diagram name="Page-1" id="1kI1YgAdhDli3fO-mTcj">
    <mxGraphModel dx="670" dy="693" grid="1" gridSize="10" guides="1" tooltips="1" connect="1" arrows="1" fold="1" page="1" pageScale="1" pageWidth="850" pageHeight="1100" math="0" shadow="0">
      <root>
        <mxCell id="0" />
        <mxCell id="1" parent="0" />
        <mxCell id="Eql-gUoITKVKxfLyw6_d-6" value="Confirm listing" style="rounded=0;orthogonalLoop=1;jettySize=auto;html=1;exitX=0.041;exitY=0.259;exitDx=0;exitDy=0;exitPerimeter=0;" edge="1" parent="1" source="Eql-gUoITKVKxfLyw6_d-1" target="Eql-gUoITKVKxfLyw6_d-2">
          <mxGeometry relative="1" as="geometry" />
        </mxCell>
        <mxCell id="Eql-gUoITKVKxfLyw6_d-9" value="Confirm sale" style="rounded=0;orthogonalLoop=1;jettySize=auto;html=1;exitX=0.376;exitY=0.988;exitDx=0;exitDy=0;exitPerimeter=0;entryX=1;entryY=0.75;entryDx=0;entryDy=0;" edge="1" parent="1" source="Eql-gUoITKVKxfLyw6_d-1" target="Eql-gUoITKVKxfLyw6_d-3">
          <mxGeometry relative="1" as="geometry" />
        </mxCell>
        <mxCell id="Eql-gUoITKVKxfLyw6_d-10" value="Conduct transaction" style="rounded=0;orthogonalLoop=1;jettySize=auto;html=1;" edge="1" parent="1" source="Eql-gUoITKVKxfLyw6_d-1" target="Eql-gUoITKVKxfLyw6_d-4">
          <mxGeometry relative="1" as="geometry" />
        </mxCell>
        <mxCell id="Eql-gUoITKVKxfLyw6_d-1" value="C2C e-Commerce System" style="ellipse;whiteSpace=wrap;html=1;aspect=fixed;fontSize=17;" vertex="1" parent="1">
          <mxGeometry x="385" y="390" width="170" height="170" as="geometry" />
        </mxCell>
        <mxCell id="Eql-gUoITKVKxfLyw6_d-5" value="Sell a product" style="rounded=0;orthogonalLoop=1;jettySize=auto;html=1;exitX=1;exitY=0.5;exitDx=0;exitDy=0;entryX=0.218;entryY=0.112;entryDx=0;entryDy=0;entryPerimeter=0;" edge="1" parent="1" source="Eql-gUoITKVKxfLyw6_d-2" target="Eql-gUoITKVKxfLyw6_d-1">
          <mxGeometry relative="1" as="geometry">
            <mxPoint x="411" y="414" as="targetPoint" />
          </mxGeometry>
        </mxCell>
        <mxCell id="Eql-gUoITKVKxfLyw6_d-2" value="&lt;font style=&quot;font-size: 16px;&quot;&gt;Seller&lt;/font&gt;" style="rounded=0;whiteSpace=wrap;html=1;" vertex="1" parent="1">
          <mxGeometry x="160" y="300" width="120" height="60" as="geometry" />
        </mxCell>
        <mxCell id="Eql-gUoITKVKxfLyw6_d-7" value="Message Seller" style="rounded=0;orthogonalLoop=1;jettySize=auto;html=1;exitX=0.25;exitY=0;exitDx=0;exitDy=0;" edge="1" parent="1" source="Eql-gUoITKVKxfLyw6_d-3" target="Eql-gUoITKVKxfLyw6_d-1">
          <mxGeometry relative="1" as="geometry" />
        </mxCell>
        <mxCell id="Eql-gUoITKVKxfLyw6_d-8" value="Pay for product" style="rounded=0;orthogonalLoop=1;jettySize=auto;html=1;entryX=0.159;entryY=0.894;entryDx=0;entryDy=0;entryPerimeter=0;" edge="1" parent="1" source="Eql-gUoITKVKxfLyw6_d-3" target="Eql-gUoITKVKxfLyw6_d-1">
          <mxGeometry relative="1" as="geometry" />
        </mxCell>
        <mxCell id="Eql-gUoITKVKxfLyw6_d-3" value="&lt;font style=&quot;font-size: 16px;&quot;&gt;Buyer&lt;/font&gt;" style="rounded=0;whiteSpace=wrap;html=1;" vertex="1" parent="1">
          <mxGeometry x="190" y="610" width="120" height="60" as="geometry" />
        </mxCell>
        <mxCell id="Eql-gUoITKVKxfLyw6_d-11" value="Confirm payment" style="rounded=0;orthogonalLoop=1;jettySize=auto;html=1;exitX=0.942;exitY=0.967;exitDx=0;exitDy=0;exitPerimeter=0;entryX=1.006;entryY=0.418;entryDx=0;entryDy=0;entryPerimeter=0;" edge="1" parent="1" source="Eql-gUoITKVKxfLyw6_d-4" target="Eql-gUoITKVKxfLyw6_d-1">
          <mxGeometry relative="1" as="geometry" />
        </mxCell>
        <mxCell id="Eql-gUoITKVKxfLyw6_d-4" value="Payment Gateway" style="rounded=0;whiteSpace=wrap;html=1;" vertex="1" parent="1">
          <mxGeometry x="570" y="260" width="120" height="60" as="geometry" />
        </mxCell>
      </root>
    </mxGraphModel>
  </diagram>
</mxfile>
